#define ArchLogo_width 16
#define ArchLogo_height 16
static unsigned char ArchLogo_bits[] = {
   0x80, 0x01, 0x80, 0x01, 0xc0, 0x03, 0xc0, 0x03, 0xc0, 0x03, 0xc0, 0x07,
   0xa0, 0x07, 0xf0, 0x0f, 0xf0, 0x0f, 0xf8, 0x07, 0xf8, 0x1f, 0x7c, 0x3e,
   0x7c, 0x3e, 0x7e, 0x7e, 0x1f, 0xf8, 0x07, 0xe0 };
