#define HW_width 16
#define HW_height 16
static unsigned char HW_bits[] = {
   0xff, 0xff, 0xff, 0xff, 0x03, 0xc0, 0x4b, 0xd1, 0x4b, 0xd1, 0x4b, 0xd1,
   0x4b, 0xd1, 0x7b, 0xd5, 0x4b, 0xd5, 0x4b, 0xd5, 0x4b, 0xd5, 0x4b, 0xd5,
   0x4b, 0xdf, 0x03, 0xc0, 0xff, 0xff, 0xff, 0xff };
