#define Muted2_width 16
#define Muted2_height 16
static unsigned char Muted2_bits[] = {
   0xe0, 0x07, 0xf8, 0x1f, 0x1c, 0x38, 0x06, 0x78, 0x06, 0x7c, 0x03, 0xee,
   0x03, 0xc7, 0x83, 0xc3, 0xc3, 0xc1, 0xe3, 0xc0, 0x73, 0xc0, 0x3e, 0x60,
   0x1e, 0x60, 0x1c, 0x38, 0xf8, 0x1f, 0xe0, 0x07 };
