#define Muted3_width 16
#define Muted3_height 16
static unsigned char Muted3_bits[] = {
   0x00, 0x00, 0x00, 0x00, 0x00, 0x00, 0xc0, 0x00, 0xe0, 0x00, 0xf8, 0x84,
   0xfe, 0x48, 0xfe, 0x20, 0xfe, 0x10, 0xfe, 0x48, 0xf8, 0x84, 0xe0, 0x00,
   0xc0, 0x00, 0x00, 0x00, 0x00, 0x00, 0x00, 0x00 };
