#define Paused_width 16
#define Paused_height 16
static unsigned char Paused_bits[] = {
   0xff, 0xff, 0x01, 0x80, 0x39, 0x9c, 0x39, 0x9c, 0x39, 0x9c, 0x39, 0x9c,
   0x39, 0x9c, 0x39, 0x9c, 0x39, 0x9c, 0x39, 0x9c, 0x39, 0x9c, 0x39, 0x9c,
   0x39, 0x9c, 0x39, 0x9c, 0x01, 0x80, 0xff, 0xff };
