#define Paused2_width 16
#define Paused2_height 16
static unsigned char Paused2_bits[] = {
   0x00, 0x00, 0x00, 0x00, 0x00, 0x00, 0x78, 0x1e, 0x78, 0x1e, 0x78, 0x1e,
   0x78, 0x1e, 0x78, 0x1e, 0x78, 0x1e, 0x78, 0x1e, 0x78, 0x1e, 0x78, 0x1e,
   0x78, 0x1e, 0x00, 0x00, 0x00, 0x00, 0x00, 0x00 };
