#define PianoKeysIcon_width 16
#define PianoKeysIcon_height 16
static unsigned char PianoKeysIcon_bits[] = {
   0xff, 0xff, 0x79, 0xcf, 0x79, 0xcf, 0x79, 0xcf, 0x79, 0xcf, 0x79, 0xcf,
   0x79, 0xcf, 0x79, 0xcf, 0x79, 0xcf, 0x11, 0xc2, 0x11, 0xc2, 0x11, 0xc2,
   0x11, 0xc2, 0x11, 0xc2, 0x11, 0xc2, 0xff, 0xff };
