#define Speaker2_width 16
#define Speaker2_height 16
static unsigned char Speaker2_bits[] = {
   0xff, 0xff, 0xff, 0xff, 0xd7, 0xeb, 0x3b, 0xdc, 0x0f, 0xf0, 0x0b, 0xd0,
   0x87, 0xe1, 0xc7, 0xe3, 0xc7, 0xe3, 0x87, 0xe1, 0x0b, 0xd0, 0x0f, 0xf0,
   0x3b, 0xdc, 0xd7, 0xeb, 0xff, 0xff, 0xff, 0xff };
