#define Speaker_width 16
#define Speaker_height 16
static unsigned char Speaker_bits[] = {
   0xff, 0xff, 0x89, 0x88, 0x55, 0x95, 0x89, 0x88, 0xff, 0xff, 0x57, 0xd5,
   0xab, 0xea, 0x57, 0xd5, 0xab, 0xea, 0x57, 0xd5, 0xab, 0xea, 0x57, 0xd5,
   0xab, 0xea, 0x57, 0xd5, 0xff, 0xff, 0xff, 0xff };
