#define Treble_width 16
#define Treble_height 16
static unsigned char Treble_bits[] = {
   0x00, 0x04, 0x00, 0x0a, 0x00, 0x09, 0x00, 0x05, 0x00, 0x03, 0x00, 0x01,
   0x80, 0x01, 0x40, 0x01, 0x20, 0x03, 0xa0, 0x05, 0x20, 0x05, 0x40, 0x05,
   0x80, 0x03, 0x40, 0x01, 0x20, 0x01, 0xc0, 0x00 };
