#define Workspace1_width 16
#define Workspace1_height 16
static unsigned char Workspace1_bits[] = {
   0x00, 0x00, 0x00, 0x00, 0x00, 0x00, 0x00, 0x00, 0x80, 0x01, 0xe0, 0x07,
   0xe0, 0x07, 0xf0, 0x0f, 0xf0, 0x0f, 0xe0, 0x07, 0xe0, 0x07, 0x80, 0x01,
   0x00, 0x00, 0x00, 0x00, 0x00, 0x00, 0x00, 0x00 };
