#define Workspace2Free_width 16
#define Workspace2Free_height 16
static unsigned char Workspace2Free_bits[] = {
   0x00, 0x00, 0x00, 0x00, 0x00, 0x00, 0x00, 0x00, 0x80, 0x01, 0xc0, 0x03,
   0x60, 0x06, 0x30, 0x0c, 0x30, 0x0c, 0x60, 0x06, 0xc0, 0x03, 0x80, 0x01,
   0x00, 0x00, 0x00, 0x00, 0x00, 0x00, 0x00, 0x00 };
